<svg width="558" height="75" viewBox="0 0 558 75" fill="none" xmlns="http://www.w3.org/2000/svg">
<g filter="url(#filter0_d_3_4)">
<path d="M4.29688 13.7305C4.29688 11.9076 4.91536 10.3776 6.15234 9.14062C7.45443 7.83854 9.01693 7.1875 10.8398 7.1875H67.6758C69.4987 7.1875 71.0612 7.80599 72.3633 9.04297C73.6003 10.3451 74.2188 11.9076 74.2188 13.7305C74.2188 15.5534 73.5677 17.1159 72.2656 18.418C71.0286 19.6549 69.4987 20.2734 67.6758 20.2734H45.8984V59.8242C45.5078 63.7305 43.3594 65.8464 39.4531 66.1719C37.6302 66.1719 36.0352 65.5859 34.668 64.4141C33.3659 63.1771 32.7148 61.6471 32.7148 59.8242V20.2734H10.8398C9.01693 20.2734 7.48698 19.6224 6.25 18.3203C4.94792 17.0833 4.29688 15.5534 4.29688 13.7305ZM91.2109 19.4922C92.9688 19.5573 94.4661 20.2083 95.7031 21.4453C96.9401 22.6172 97.5911 24.082 97.6562 25.8398V59.6289C97.2656 63.5352 95.1172 65.651 91.2109 65.9766C89.388 65.9766 87.793 65.3906 86.4258 64.2188C85.1237 62.9818 84.4727 61.4518 84.4727 59.6289V25.8398C84.5378 24.0169 85.2214 22.5195 86.5234 21.3477C87.8255 20.1107 89.388 19.4922 91.2109 19.4922ZM83.0078 6.79688C83.0078 4.97396 83.7891 3.41146 85.3516 2.10938C86.9141 0.807292 88.8021 0.15625 91.0156 0.15625C93.2292 0.15625 95.1172 0.807292 96.6797 2.10938C98.2422 3.41146 99.0234 4.97396 99.0234 6.79688C99.0234 8.6849 98.2422 10.2799 96.6797 11.582C95.1172 12.8841 93.2292 13.5352 91.0156 13.5352C88.8021 13.5352 86.9141 12.8841 85.3516 11.582C83.7891 10.2799 83.0078 8.6849 83.0078 6.79688ZM129.395 64.8047C123.665 64.6094 119.336 63.2747 116.406 60.8008C113.477 58.2617 111.361 55.4297 110.059 52.3047C108.757 49.1146 108.105 45.8919 108.105 42.6367C108.105 39.2513 108.724 35.9961 109.961 32.8711C111.263 29.681 113.379 26.849 116.309 24.375C119.303 21.8359 123.079 20.5339 127.637 20.4688H164.746C166.569 20.4688 168.099 21.1198 169.336 22.4219C170.638 23.6589 171.289 25.1888 171.289 27.0117C171.289 28.8346 170.638 30.3971 169.336 31.6992C168.099 32.9362 166.569 33.5547 164.746 33.5547H127.246C126.009 33.5547 124.935 34.0755 124.023 35.1172C123.112 36.0938 122.428 37.2656 121.973 38.6328C121.582 39.9349 121.387 41.237 121.387 42.5391C121.387 43.9062 121.582 45.2734 121.973 46.6406C122.428 47.9427 123.112 49.1146 124.023 50.1562C124.935 51.1328 126.009 51.6536 127.246 51.7188H164.746C166.569 51.7188 168.099 52.3698 169.336 53.6719C170.638 54.9089 171.289 56.4388 171.289 58.2617C171.289 60.0846 170.638 61.6146 169.336 62.8516C168.099 64.1536 166.569 64.8047 164.746 64.8047H129.395ZM188.281 5.625C190.039 5.6901 191.536 6.34115 192.773 7.57812C194.01 8.75 194.661 10.2148 194.727 11.9727V59.8242C194.336 63.7305 192.188 65.8464 188.281 66.1719C186.458 66.1719 184.863 65.5859 183.496 64.4141C182.194 63.1771 181.543 61.6471 181.543 59.8242V11.9727C181.608 10.1497 182.292 8.65234 183.594 7.48047C184.896 6.24349 186.458 5.625 188.281 5.625ZM200.684 32.8711C202.572 29.8112 206.185 27.5651 211.523 26.1328L236.621 19.3945C238.379 18.8737 240.039 19.0365 241.602 19.8828C243.229 20.6641 244.303 21.9336 244.824 23.6914C245.41 25.3841 245.28 27.0443 244.434 28.6719C243.652 30.2344 242.383 31.3086 240.625 31.8945L213.867 38.8281C211.979 39.5443 211.068 40.7812 211.133 42.5391C211.068 44.2969 211.979 45.5339 213.867 46.25L240.625 53.1836C242.383 53.7695 243.652 54.8763 244.434 56.5039C245.28 58.0664 245.41 59.694 244.824 61.3867C244.303 63.1445 243.229 64.4141 241.602 65.1953C240.039 66.0417 238.379 66.2044 236.621 65.6836L211.523 58.9453C206.12 57.4479 202.474 55.1693 200.586 52.1094C198.763 49.0495 197.852 45.8594 197.852 42.5391C197.852 39.2188 198.796 35.9961 200.684 32.8711ZM275.391 64.8047C269.661 64.6094 265.332 63.2747 262.402 60.8008C259.473 58.2617 257.357 55.4297 256.055 52.3047C254.753 49.1146 254.102 45.8919 254.102 42.6367C254.102 39.2513 254.72 35.9961 255.957 32.8711C257.259 29.681 259.375 26.849 262.305 24.375C265.299 21.8359 269.076 20.5339 273.633 20.4688H310.742C312.565 20.4688 314.095 21.0872 315.332 22.3242C316.634 23.4961 317.285 24.9284 317.285 26.6211C317.285 28.3789 316.634 29.8763 315.332 31.1133C314.095 32.2852 312.565 32.8711 310.742 32.8711H274.219C272.786 32.8711 271.517 33.3594 270.41 34.3359C269.368 35.3125 268.587 36.582 268.066 38.1445C267.611 39.707 267.383 41.237 267.383 42.7344C267.383 44.362 267.611 45.957 268.066 47.5195C268.587 49.082 269.368 50.3516 270.41 51.3281C271.517 52.2396 272.786 52.7279 274.219 52.793H310.742C312.565 52.793 314.095 53.3789 315.332 54.5508C316.634 55.7227 317.285 57.1224 317.285 58.75C317.285 60.4427 316.634 61.875 315.332 63.0469C314.095 64.2188 312.565 64.8047 310.742 64.8047H275.391ZM316.113 42.4414C316.113 43.6784 315.56 44.7526 314.453 45.6641C313.477 46.5104 312.24 46.9336 310.742 46.9336H278.809C277.311 46.9336 276.042 46.5104 275 45.6641C273.958 44.7526 273.438 43.6784 273.438 42.4414C273.438 41.2695 273.958 40.2279 275 39.3164C276.042 38.4701 277.311 38.0469 278.809 38.0469H310.742C312.24 38.0469 313.509 38.5026 314.551 39.4141C315.592 40.2604 316.113 41.2695 316.113 42.4414ZM349.707 5.625C351.53 5.625 353.092 6.24349 354.395 7.48047C355.697 8.65234 356.38 10.1497 356.445 11.9727V20.4688H389.648C391.471 20.4688 393.034 21.0872 394.336 22.3242C395.573 23.6263 396.191 25.1888 396.191 27.0117C396.191 28.8346 395.54 30.3971 394.238 31.6992C393.001 32.9362 391.471 33.5547 389.648 33.5547H356.445V35.5078C356.38 38.1771 356.543 40.651 356.934 42.9297C357.389 45.1432 358.431 47.1289 360.059 48.8867C361.686 50.6445 363.737 51.5885 366.211 51.7188H390.039C391.862 51.7839 393.359 52.4674 394.531 53.7695C395.768 55.0716 396.387 56.6341 396.387 58.457C396.322 60.2148 395.671 61.7122 394.434 62.9492C393.262 64.1211 391.797 64.7396 390.039 64.8047H362.891C358.333 64.5443 354.557 63.0143 351.562 60.2148C348.633 57.3503 346.517 53.8672 345.215 49.7656C343.978 45.6641 343.327 41.3021 343.262 36.6797V33.5547H332.031C330.208 33.5547 328.678 32.9036 327.441 31.6016C326.139 30.3646 325.488 28.8346 325.488 27.0117C325.488 25.1888 326.107 23.6589 327.344 22.4219C328.646 21.1198 330.208 20.4688 332.031 20.4688H343.262V11.9727C343.327 10.2148 343.978 8.75 345.215 7.57812C346.452 6.34115 347.949 5.6901 349.707 5.625ZM424.316 7.1875H465.527C467.35 7.2526 468.848 7.9362 470.02 9.23828C471.257 10.5404 471.875 12.1029 471.875 13.9258C471.549 17.832 469.434 19.9479 465.527 20.2734H427.637C425.163 20.4036 423.112 21.3477 421.484 23.1055C419.857 24.8633 418.652 26.8815 417.871 29.1602C417.155 31.3737 416.797 33.6523 416.797 35.9961C416.797 38.3398 417.155 40.651 417.871 42.9297C418.652 45.1432 419.857 47.1289 421.484 48.8867C423.112 50.6445 425.163 51.5885 427.637 51.7188H457.324C458.496 51.6536 459.115 51.0026 459.18 49.7656V44.1016C459.115 42.7995 458.496 42.1484 457.324 42.1484H432.324C430.501 42.1484 428.939 41.5299 427.637 40.293C426.4 38.9909 425.781 37.4284 425.781 35.6055C425.781 33.7826 426.4 32.2201 427.637 30.918C428.939 29.681 430.501 29.0625 432.324 29.0625H465.723C467.546 29.0625 469.108 29.681 470.41 30.918C471.582 32.1549 472.201 33.6523 472.266 35.4102V35.6055V58.457C472.201 60.2148 471.582 61.6797 470.41 62.8516C469.173 64.0885 467.676 64.7396 465.918 64.8047H424.316C419.759 64.5443 415.983 62.819 412.988 59.6289C410.059 56.3737 407.943 52.6953 406.641 48.5938C405.404 44.4922 404.785 40.293 404.785 35.9961C404.785 31.6992 405.436 27.5 406.738 23.3984C408.04 19.2969 410.156 15.651 413.086 12.4609C416.016 9.20573 419.759 7.44792 424.316 7.1875ZM504.59 64.8047C498.861 64.6094 494.531 63.2747 491.602 60.8008C488.672 58.2617 486.556 55.4297 485.254 52.3047C483.952 49.1146 483.301 45.8919 483.301 42.6367C483.301 39.2513 483.919 35.9961 485.156 32.8711C486.458 29.681 488.574 26.849 491.504 24.375C494.499 21.8359 498.275 20.5339 502.832 20.4688H534.473C539.03 20.5339 542.773 21.8359 545.703 24.375C548.698 26.849 550.814 29.681 552.051 32.8711C553.353 35.9961 554.004 39.2513 554.004 42.6367C554.004 45.8919 553.353 49.1146 552.051 52.3047C550.749 55.4297 548.633 58.2617 545.703 60.8008C542.773 63.2747 538.444 64.6094 532.715 64.8047H504.59ZM502.441 33.5547C501.204 33.5547 500.13 34.0755 499.219 35.1172C498.307 36.0938 497.624 37.2656 497.168 38.6328C496.777 39.9349 496.582 41.237 496.582 42.5391C496.582 43.9062 496.777 45.2734 497.168 46.6406C497.624 47.9427 498.307 49.1146 499.219 50.1562C500.13 51.1328 501.204 51.6536 502.441 51.7188H534.863C536.1 51.6536 537.174 51.1328 538.086 50.1562C538.997 49.1146 539.648 47.9427 540.039 46.6406C540.495 45.2734 540.723 43.9062 540.723 42.5391C540.723 41.237 540.495 39.9349 540.039 38.6328C539.648 37.2656 538.997 36.0938 538.086 35.1172C537.174 34.0755 536.1 33.5547 534.863 33.5547H502.441Z" fill="white"/>
</g>
<defs>
<filter id="filter0_d_3_4" x="0.296875" y="0.15625" width="557.707" height="74.3086" filterUnits="userSpaceOnUse" color-interpolation-filters="sRGB">
<feFlood flood-opacity="0" result="BackgroundImageFix"/>
<feColorMatrix in="SourceAlpha" type="matrix" values="0 0 0 0 0 0 0 0 0 0 0 0 0 0 0 0 0 0 127 0" result="hardAlpha"/>
<feOffset dy="4"/>
<feGaussianBlur stdDeviation="2"/>
<feComposite in2="hardAlpha" operator="out"/>
<feColorMatrix type="matrix" values="0 0 0 0 0 0 0 0 0 0 0 0 0 0 0 0 0 0 0.25 0"/>
<feBlend mode="normal" in2="BackgroundImageFix" result="effect1_dropShadow_3_4"/>
<feBlend mode="normal" in="SourceGraphic" in2="effect1_dropShadow_3_4" result="shape"/>
</filter>
</defs>
</svg>
